<?xml version="1.0" standalone="no"?>
<!DOCTYPE svg PUBLIC "-//W3C//DTD SVG 20010904//EN"
 "http://www.w3.org/TR/2001/REC-SVG-20010904/DTD/svg10.dtd">
<svg version="1.0" xmlns="http://www.w3.org/2000/svg"
 width="2134.000000pt" height="2134.000000pt" viewBox="0 0 2134.000000 2134.000000"
 preserveAspectRatio="xMidYMid meet">
<metadata>
Created by potrace 1.14, written by Peter Selinger 2001-2017
</metadata>
<g transform="translate(0.000000,2134.000000) scale(0.100000,-0.100000)"
fill="#000000" stroke="none">
<path d="M6362 21329 c-98 -18 -191 -89 -239 -182 -23 -45 -27 -64 -27 -142
-1 -120 22 -170 136 -290 82 -87 137 -148 171 -190 358 -441 622 -952 801
-1555 28 -95 73 -262 80 -300 2 -14 14 -70 26 -125 12 -55 24 -111 26 -125 3
-14 9 -51 15 -83 6 -32 12 -70 14 -85 2 -15 6 -47 10 -70 3 -24 3 -42 -2 -39
-4 3 -33 8 -63 12 -30 4 -59 9 -64 12 -15 10 -379 12 -444 2 -202 -29 -316
-64 -467 -142 -201 -105 -364 -272 -459 -472 -115 -242 -143 -475 -100 -835
l6 -55 -953 2 c-525 1 -961 2 -970 3 -24 0 -118 149 -199 315 -127 259 -208
555 -227 835 -4 52 -7 338 -7 635 l-1 540 575 0 c513 0 666 -4 750 -19 14 -3
54 -10 90 -16 402 -71 779 -251 1110 -531 79 -67 151 -96 235 -96 190 0 341
154 336 342 -3 105 -46 184 -152 277 -288 252 -675 464 -1062 582 -97 29 -126
38 -182 52 -18 4 -64 14 -92 19 -16 3 -39 8 -53 10 -61 12 -80 15 -155 25 -44
6 -96 13 -115 17 -19 3 -404 7 -854 9 l-819 3 -64 -24 c-81 -31 -144 -90 -186
-174 l-32 -65 1 -766 c0 -661 5 -905 19 -978 1 -9 6 -42 9 -72 8 -72 25 -160
61 -320 25 -114 119 -380 184 -523 17 -38 31 -72 31 -75 0 -4 -235 -7 -523 -7
l-522 0 -54 -23 c-117 -51 -202 -173 -204 -294 -2 -102 18 -151 107 -268 44
-58 84 -110 90 -117 6 -6 21 -24 33 -40 19 -25 597 -761 661 -842 15 -19 170
-217 345 -440 175 -223 372 -473 437 -556 135 -171 908 -1155 1011 -1287 37
-47 260 -331 495 -630 235 -298 456 -579 490 -623 34 -44 119 -152 188 -240
127 -160 256 -325 298 -379 13 -16 41 -52 63 -80 23 -28 173 -220 335 -426
162 -206 344 -438 404 -515 61 -77 123 -156 138 -175 14 -19 99 -127 188 -240
89 -113 173 -218 186 -235 13 -16 145 -185 294 -375 149 -190 276 -352 283
-360 7 -8 28 -35 47 -60 19 -25 39 -50 45 -57 5 -6 21 -26 35 -44 42 -54 175
-224 395 -503 116 -147 230 -293 255 -325 25 -32 92 -118 150 -190 58 -73 114
-145 125 -160 11 -15 68 -88 128 -163 l107 -136 0 -2461 0 -2461 -22 -4 c-27
-6 -120 -23 -163 -31 -16 -3 -41 -7 -55 -10 -14 -3 -52 -10 -85 -16 -102 -18
-499 -105 -610 -134 -258 -68 -440 -120 -605 -175 -160 -53 -423 -150 -434
-161 -6 -5 -16 -9 -23 -9 -7 0 -38 -12 -70 -26 -32 -15 -74 -33 -93 -41 -67
-29 -315 -155 -385 -196 -274 -159 -493 -336 -648 -524 -126 -153 -157 -243
-132 -380 14 -80 90 -174 177 -220 l53 -28 4095 0 4095 0 45 24 c92 49 145
108 176 193 32 90 15 225 -39 302 -210 300 -515 535 -992 767 -290 141 -556
242 -1000 379 -207 65 -902 225 -1100 255 -48 7 -155 26 -172 31 -10 3 -13
504 -13 2465 l0 2461 33 42 c17 22 37 48 44 56 7 8 39 49 71 90 313 399 592
754 626 796 23 28 52 66 66 84 14 18 245 312 513 654 269 341 564 718 657 836
93 118 370 472 617 785 246 314 462 587 478 609 17 21 68 86 115 145 47 59 96
123 110 141 14 18 104 133 200 255 96 122 187 237 202 256 15 19 138 176 274
349 136 173 270 344 299 380 28 36 242 308 475 605 233 297 455 581 495 630
39 50 138 176 220 280 82 105 181 231 220 280 39 50 122 155 185 235 62 80
135 172 161 205 26 33 143 182 259 330 116 149 222 284 235 300 14 17 71 89
127 161 57 72 115 146 130 165 15 19 65 82 110 140 46 59 139 178 208 265 190
240 200 259 202 369 4 161 -104 299 -262 335 -30 6 -628 9 -1793 7 -1267 -1
-1747 1 -1747 9 0 6 23 83 51 170 28 87 61 193 74 234 13 41 36 114 51 163
l28 87 145 0 c80 1 533 1 1006 1 931 1 947 2 1105 56 257 88 477 288 590 537
17 36 186 610 377 1274 324 1130 346 1212 347 1287 0 65 -5 90 -26 136 -29 64
-89 129 -145 157 -30 15 -301 98 -383 117 -8 2 -197 56 -420 120 -223 64 -412
118 -420 120 -8 2 -37 11 -65 19 -143 46 -235 38 -337 -26 -49 -31 -106 -100
-126 -153 -6 -16 -48 -158 -92 -315 -45 -157 -90 -314 -100 -350 -11 -36 -55
-191 -99 -345 -44 -154 -86 -301 -95 -328 -8 -26 -14 -49 -13 -50 0 -1 -7 -27
-16 -57 -9 -30 -25 -87 -36 -125 l-20 -70 -978 0 c-880 0 -1037 -2 -1123 -18
-254 -48 -479 -195 -632 -412 -65 -92 -100 -169 -158 -350 -46 -141 -428
-1339 -545 -1708 -29 -93 -55 -171 -58 -174 -4 -4 -2661 -7 -2765 -3 -9 0 -12
10 -8 33 21 119 27 352 14 474 -17 147 -79 337 -152 458 -176 295 -494 487
-881 533 -122 14 -395 7 -507 -13 -16 -3 -38 -7 -50 -9 -13 -2 -40 -7 -60 -11
-21 -4 -38 -6 -38 -4 -4 38 -37 269 -45 314 -171 973 -518 1783 -1049 2450
-43 55 -86 108 -95 117 -9 9 -63 68 -121 131 -152 166 -248 212 -388 186z
m10993 -991 c216 -62 290 -88 288 -98 -2 -18 -7 -37 -28 -110 -9 -30 -23 -80
-32 -110 -8 -30 -44 -156 -80 -280 -36 -124 -66 -232 -68 -240 -2 -8 -65 -229
-140 -490 -75 -261 -138 -479 -139 -485 -1 -5 -10 -37 -20 -70 -10 -33 -20
-67 -21 -75 -15 -63 -49 -169 -66 -201 -29 -58 -93 -117 -157 -147 l-57 -27
-1154 -3 c-1134 -2 -1154 -3 -1214 -23 -34 -11 -77 -35 -97 -52 -78 -68 -86
-88 -247 -591 -85 -264 -155 -485 -157 -491 -10 -41 -51 -162 -56 -168 -6 -6
-581 -13 -681 -8 -13 1 3 59 83 314 55 171 115 362 135 422 19 61 54 171 78
245 23 74 68 216 99 315 120 380 168 520 188 549 38 54 101 106 158 128 l55
21 1135 2 c624 1 1151 5 1170 9 60 14 124 52 169 101 48 52 64 85 97 200 12
44 47 168 78 275 30 107 85 299 122 425 36 127 69 239 71 250 5 17 123 433
140 488 7 25 1 26 348 -75z m-8760 -2832 c264 -17 433 -144 480 -358 13 -62
13 -251 0 -328 -9 -49 -33 -141 -38 -147 -3 -2 -580 -5 -1284 -5 l-1278 0 -12
41 c-6 23 -14 56 -17 74 -3 17 -8 49 -11 69 -16 97 -7 282 16 346 57 158 165
247 351 292 68 16 110 19 233 16 83 -2 166 -7 185 -10 77 -15 230 -61 305 -93
197 -85 255 -89 395 -28 106 46 207 81 286 100 92 21 112 24 199 31 44 4 81 8
83 9 2 2 11 1 20 -1 9 -1 49 -5 87 -8z m-5004 -1583 c199 -205 395 -363 604
-486 44 -26 87 -52 95 -57 25 -16 251 -126 320 -156 91 -38 200 -39 282 -2 69
32 139 99 170 165 18 39 23 65 23 138 0 78 -4 97 -28 147 -36 74 -108 138
-194 174 -75 31 -272 131 -287 145 -6 5 284 9 720 9 l729 -1 57 -89 c74 -114
156 -215 253 -313 43 -43 76 -79 74 -81 -2 -2 -49 -13 -104 -25 -55 -13 -107
-24 -115 -26 -69 -15 -296 -75 -435 -115 -571 -164 -1154 -381 -1765 -659
-110 -50 -137 -59 -145 -48 -5 7 -31 40 -57 73 -27 32 -120 151 -208 264 -88
113 -166 212 -173 220 -10 13 -97 122 -134 170 -54 69 -210 268 -220 280 -7 8
-49 62 -94 120 -45 58 -105 133 -132 168 l-49 62 369 0 369 0 75 -77z m5002
49 c-116 -100 -318 -207 -475 -251 -144 -40 -214 -49 -363 -49 -112 0 -180 7
-307 33 -51 10 -203 67 -270 101 -93 47 -264 160 -272 180 -3 8 230 11 856 11
l859 0 -28 -25z m3697 6 c-5 -13 -39 -117 -75 -233 -114 -359 -269 -845 -310
-970 -15 -47 -28 -70 -38 -69 -140 12 -185 16 -202 19 -20 4 -95 14 -150 20
-88 9 -510 91 -528 102 -5 3 -21 7 -38 10 -50 7 -347 102 -488 154 -73 28
-244 98 -380 156 -449 191 -638 262 -876 328 l-101 27 76 77 c42 42 101 108
132 146 64 80 168 232 168 246 0 5 564 9 1410 9 l1410 0 -10 -22z m1407 15
c-3 -5 -26 -75 -52 -158 -26 -82 -55 -175 -66 -205 -10 -31 -30 -91 -43 -135
-41 -137 -257 -810 -261 -813 -9 -9 -683 -17 -692 -9 -2 3 28 105 67 228 40
123 83 260 97 304 14 44 30 96 36 115 6 19 11 37 12 40 1 3 29 91 62 195 70
218 77 238 78 245 0 3 13 43 28 90 16 47 30 91 32 98 3 9 83 12 355 12 193 0
349 -3 347 -7z m3675 -30 c-16 -21 -116 -148 -222 -283 -106 -135 -204 -260
-219 -279 -14 -19 -50 -64 -78 -100 -68 -86 -64 -80 -96 -122 -28 -37 -53 -45
-257 -83 -30 -6 -59 -12 -120 -25 -25 -6 -115 -24 -200 -40 -168 -33 -174 -34
-300 -56 -47 -8 -95 -17 -106 -19 -12 -2 -39 -7 -60 -10 -22 -4 -79 -13 -129
-22 -145 -24 -187 -31 -245 -39 -25 -3 -83 -12 -130 -20 -47 -7 -107 -16 -135
-20 -66 -8 -114 -15 -145 -20 -14 -2 -52 -7 -85 -10 -33 -4 -67 -8 -75 -10 -8
-2 -46 -7 -85 -11 -38 -3 -72 -7 -75 -9 -3 -2 -43 -6 -90 -10 -47 -4 -87 -8
-90 -10 -4 -2 -105 -12 -200 -20 -24 -2 -132 -13 -197 -19 -20 -2 -33 1 -33 8
0 6 16 61 36 121 19 61 51 157 69 215 90 283 240 755 266 838 l30 92 1500 0
1501 0 -30 -37z m-9172 -977 c19 -2 71 -7 115 -11 44 -3 91 -8 105 -10 14 -3
50 -7 80 -10 138 -14 412 -71 565 -116 205 -62 334 -111 671 -254 366 -156
530 -221 726 -285 137 -44 455 -131 533 -145 17 -2 41 -7 55 -10 74 -16 277
-50 350 -60 25 -3 56 -8 70 -10 14 -2 48 -7 75 -10 28 -3 68 -8 90 -11 22 -3
60 -7 85 -9 25 -2 77 -6 115 -9 149 -14 174 -15 300 -23 167 -10 1064 -10
1260 0 355 18 501 27 535 32 14 2 66 6 115 10 50 3 108 8 130 10 46 5 123 12
210 21 33 3 74 7 90 9 17 1 57 6 90 9 33 4 76 9 95 11 19 3 58 7 85 11 28 3
61 7 75 9 14 2 52 7 85 11 33 3 67 8 76 9 9 2 40 6 69 10 29 4 61 8 70 10 9 2
41 6 71 10 30 3 92 12 139 20 47 8 105 17 130 20 38 5 277 44 375 61 17 3 46
7 65 10 19 2 50 8 70 13 19 5 54 12 77 15 l43 6 -148 -187 c-81 -104 -153
-195 -159 -203 -11 -13 -321 -408 -392 -499 -51 -65 -122 -156 -134 -171 -7
-8 -122 -154 -256 -325 -133 -170 -250 -319 -259 -330 -10 -11 -39 -49 -66
-85 -28 -36 -61 -79 -75 -96 -39 -47 40 54 -786 -999 -652 -831 -1920 -2444
-1933 -2460 -10 -11 -31 -38 -47 -60 -17 -22 -57 -74 -90 -115 -33 -41 -72
-91 -87 -110 -15 -19 -249 -316 -519 -660 -270 -344 -503 -641 -518 -660 l-26
-35 -503 0 -504 0 -59 75 c-33 41 -65 82 -72 90 -7 8 -58 74 -114 145 -56 72
-272 346 -480 611 -208 265 -441 561 -518 659 -77 99 -234 299 -350 445 -115
147 -220 280 -232 296 -12 16 -122 155 -243 309 -122 154 -242 307 -267 340
-37 48 -411 524 -460 585 -6 8 -73 94 -149 190 -75 96 -160 204 -189 240 -98
124 -450 571 -470 599 -26 36 -238 305 -245 311 -3 3 -21 25 -40 50 -19 25
-64 83 -101 130 -203 258 -459 584 -480 612 -13 17 -78 99 -144 183 -66 83
-132 167 -147 186 -44 56 -165 210 -361 459 l-185 235 52 25 c137 68 609 263
846 350 63 23 124 46 135 50 25 11 316 108 445 149 185 58 626 174 740 194 14
3 59 12 100 20 41 9 89 18 105 21 17 3 41 8 55 10 14 3 41 8 60 10 19 3 44 7
55 10 33 6 97 15 150 21 28 3 61 8 75 10 26 5 101 13 180 21 25 2 95 7 155 10
61 4 111 8 113 9 6 5 614 -4 652 -9z m2221 -8356 c0 -19 1 -1162 2 -2540 l2
-2505 22 -47 c60 -131 155 -192 328 -212 28 -3 59 -8 70 -10 11 -2 43 -7 70
-10 75 -11 115 -17 139 -22 11 -2 35 -7 51 -9 79 -14 290 -56 375 -75 52 -11
117 -25 143 -30 51 -10 439 -109 522 -134 345 -100 671 -218 895 -324 l85 -40
-55 -2 c-121 -3 -6020 -5 -6020 -2 0 11 303 141 490 209 338 123 938 287 1280
349 14 2 59 11 100 19 194 38 286 54 347 61 32 3 60 8 63 9 3 2 33 7 65 10
139 16 196 38 264 106 47 47 66 80 85 143 10 33 13 569 14 2561 0 1386 1 2522
1 2525 1 3 150 5 331 5 l330 0 1 -35z"/>
<path d="M8329 13666 c-2 -2 -25 -6 -51 -9 -141 -17 -336 -98 -455 -189 -207
-160 -335 -368 -388 -633 -3 -16 -8 -83 -9 -148 -16 -550 417 -1004 974 -1021
59 -2 168 7 215 18 317 69 568 262 705 540 107 217 130 431 76 685 -20 90 -76
214 -145 321 -51 78 -193 218 -278 274 -91 59 -234 119 -338 141 -69 15 -296
30 -306 21z m236 -701 c106 -50 179 -155 188 -270 20 -237 -213 -417 -438
-340 -166 57 -258 237 -208 406 10 33 21 59 25 59 4 0 8 6 8 14 0 20 85 103
130 126 90 46 203 48 295 5z"/>
<path d="M10438 13332 c-14 -3 -16 -36 -14 -335 l1 -332 333 0 332 0 0 335 0
335 -318 0 c-174 0 -325 -1 -334 -3z"/>
<path d="M12426 12662 c-2 -4 -3 -154 -3 -334 l0 -328 333 0 334 0 0 334 0
335 -330 -1 c-181 0 -332 -3 -334 -6z"/>
<path d="M10988 11665 c-2 -2 -27 -7 -55 -10 -126 -14 -297 -84 -423 -173 -62
-44 -144 -121 -201 -188 -74 -87 -176 -294 -194 -391 -2 -16 -9 -49 -13 -76
-14 -70 -14 -222 -2 -307 24 -159 96 -331 191 -456 51 -67 62 -79 145 -155 54
-48 147 -110 218 -144 425 -199 925 -87 1211 270 22 28 42 52 46 55 11 10 52
82 83 147 135 280 127 622 -21 901 -121 228 -336 406 -588 485 -44 14 -100 28
-125 32 -52 8 -266 16 -272 10z m192 -682 c144 -38 244 -176 239 -327 -10
-281 -342 -422 -550 -234 -52 47 -89 112 -106 188 -15 65 13 188 57 250 54 75
171 138 260 138 25 0 70 -7 100 -15z"/>
<path d="M8759 10335 c-4 0 -3 -665 1 -666 18 -4 660 -3 661 1 4 17 3 660 -1
661 -3 1 -645 5 -661 4z"/>
<path d="M4020 18660 c-135 -27 -252 -159 -263 -295 -5 -66 17 -160 50 -210
14 -22 263 -277 552 -566 604 -604 578 -584 731 -583 80 0 102 3 140 23 69 37
98 61 134 115 72 107 79 232 21 345 -28 55 -1073 1103 -1132 1137 -71 39 -152
51 -233 34z"/>
</g>
</svg>
